<?xml version="1.0" standalone="no"?><!DOCTYPE svg PUBLIC "-//W3C//DTD SVG 1.1//EN" "http://www.w3.org/Graphics/SVG/1.1/DTD/svg11.dtd"><svg t="1652145324152" class="icon" viewBox="0 0 1024 1024" version="1.1" xmlns="http://www.w3.org/2000/svg" p-id="2077" xmlns:xlink="http://www.w3.org/1999/xlink" width="200" height="200"><defs><style type="text/css">@font-face { font-family: feedback-iconfont; src: url("//at.alicdn.com/t/font_1031158_u69w8yhxdu.woff2?t=1630033759944") format("woff2"), url("//at.alicdn.com/t/font_1031158_u69w8yhxdu.woff?t=1630033759944") format("woff"), url("//at.alicdn.com/t/font_1031158_u69w8yhxdu.ttf?t=1630033759944") format("truetype"); }
</style></defs><path d="M408 617m-348 0a348 348 0 1 0 696 0 348 348 0 1 0-696 0Z" fill="#C9F4EB" p-id="2078"></path><path d="M927 369H111.75a25 25 0 0 1 0-50H927a25 25 0 0 1 0 50zM569.79 748H225a30 30 0 0 1 0-60h344.79a30 30 0 0 1 0 60zM668 748h-2.84a30 30 0 1 1 0-60H668a30 30 0 0 1 0 60z" fill="#087E6A" p-id="2079"></path><path d="M832 860H197A125.14 125.14 0 0 1 72 735V263a125.14 125.14 0 0 1 125-125h635a125.14 125.14 0 0 1 125 125v472a125.14 125.14 0 0 1-125 125zM197 188a75.09 75.09 0 0 0-75 75v472a75.09 75.09 0 0 0 75 75h635a75.09 75.09 0 0 0 75-75V263a75.09 75.09 0 0 0-75-75z" fill="#087E6A" p-id="2080"></path></svg>