<?xml version="1.0" standalone="no"?><!DOCTYPE svg PUBLIC "-//W3C//DTD SVG 1.1//EN" "http://www.w3.org/Graphics/SVG/1.1/DTD/svg11.dtd"><svg t="1652145332256" class="icon" viewBox="0 0 1024 1024" version="1.1" xmlns="http://www.w3.org/2000/svg" p-id="2222" xmlns:xlink="http://www.w3.org/1999/xlink" width="200" height="200"><defs><style type="text/css">@font-face { font-family: feedback-iconfont; src: url("//at.alicdn.com/t/font_1031158_u69w8yhxdu.woff2?t=1630033759944") format("woff2"), url("//at.alicdn.com/t/font_1031158_u69w8yhxdu.woff?t=1630033759944") format("woff"), url("//at.alicdn.com/t/font_1031158_u69w8yhxdu.ttf?t=1630033759944") format("truetype"); }
</style></defs><path d="M410 606m-348 0a348 348 0 1 0 696 0 348 348 0 1 0-696 0Z" fill="#C9F4EB" p-id="2223"></path><path d="M336 660a227 227 0 0 1-227-227V131.75a25 25 0 0 1 25-25h85.74a25 25 0 0 1 0 50H159V433c0 97.62 79.42 177 177 177s177.05-79.42 177.05-177V156.75h-71.74a25 25 0 1 1 0-50h96.78a25 25 0 0 1 25 25V433A227 227 0 0 1 336 660z" fill="#087E6A" p-id="2224"></path><path d="M573.5 962c-68.36 0-132.67-25.8-181.08-72.64C343.78 842.3 317 779.67 317 713v-78a25 25 0 0 1 50 0v78c0 109.73 92.64 199 206.5 199S780 822.73 780 713V496.13a25 25 0 0 1 50 0V713c0 66.67-26.78 129.3-75.42 176.36C706.17 936.2 641.86 962 573.5 962z" fill="#087E6A" p-id="2225"></path><path d="M805.5 514A119.5 119.5 0 1 1 925 394.5 119.64 119.64 0 0 1 805.5 514z m0-189a69.5 69.5 0 1 0 69.5 69.5 69.58 69.58 0 0 0-69.5-69.5z" fill="#087E6A" p-id="2226"></path></svg>